<svg xmlns="http://www.w3.org/2000/svg" width="64" height="64" viewBox="0 0 64 64" role="img" aria-label="X">
  <defs>
    <linearGradient id="lbase" x1="0" y1="0" x2="1" y2="1">
      <stop offset="0" stop-color="#f2f2f2"></stop>
      <stop offset="1" stop-color="#e4e4e4"></stop>
    </linearGradient>
    <pattern id="lgrain" width="3" height="2" patternUnits="userSpaceOnUse">
      <rect width="3" height="1" fill="#ffffff" fill-opacity="0.35"></rect>
      <rect y="1" width="3" height="1" fill="#000000" fill-opacity="0.015"></rect>
    </pattern>
    <radialGradient id="lwarm" cx="0.85" cy="0.15" r="0.75">
      <stop offset="0" stop-color="#c9a646" stop-opacity="0.08"></stop>
      <stop offset="0.55" stop-color="#c9a646" stop-opacity="0.02"></stop>
      <stop offset="1" stop-color="#ffffff" stop-opacity="0"></stop>
    </radialGradient>
    <linearGradient id="ltopedge" x1="0" y1="0" x2="0" y2="1">
      <stop offset="0" stop-color="#ffffff" stop-opacity="0.85"></stop>
      <stop offset="0.08" stop-color="#ffffff" stop-opacity="0"></stop>
    </linearGradient>
    <radialGradient id="linnerglow" cx="0.78" cy="0.22" r="0.55">
      <stop offset="0" stop-color="#ffffff" stop-opacity="0.45"></stop>
      <stop offset="1" stop-color="#ffffff" stop-opacity="0"></stop>
    </radialGradient>
    <linearGradient id="lbottomshade" x1="0" y1="0.7" x2="0" y2="1">
      <stop offset="0" stop-color="#000000" stop-opacity="0"></stop>
      <stop offset="1" stop-color="#000000" stop-opacity="0.06"></stop>
    </linearGradient>
    <clipPath id="ltileclip">
      <rect x="0" y="0" width="64" height="64" rx="14" ry="14"></rect>
    </clipPath>
    <filter id="lnoise" x="0" y="0" width="100%" height="100%">
      <feTurbulence type="fractalNoise" baseFrequency="1.6" numOctaves="1" seed="3"></feTurbulence>
      <feColorMatrix values="0 0 0 0 0  0 0 0 0 0  0 0 0 0 0  0 0 0 0.05 0"></feColorMatrix>
    </filter>
  </defs>

  
  <g clip-path="url(#ltileclip)">
    <rect width="64" height="64" fill="#ececec"></rect>
    <rect width="64" height="64" fill="url(#lbase)"></rect>
    <rect width="64" height="64" fill="url(#lgrain)" opacity="0.35"></rect>
    <rect width="64" height="64" fill="url(#lwarm)"></rect>
    <rect width="64" height="64" fill="url(#linnerglow)"></rect>
    <rect width="64" height="64" fill="url(#lbottomshade)"></rect>
    <rect width="64" height="64" fill="#000000" filter="url(#lnoise)" opacity="0.5" style="mix-blend-mode:multiply"></rect>
    <rect width="64" height="64" fill="url(#ltopedge)"></rect>
  </g>

  
  <rect x="0.6" y="0.6" width="62.8" height="62.8" rx="13.4" ry="13.4" fill="none" stroke="#2a2a2a" stroke-opacity="0.22" stroke-width="1.2"></rect>

  
  <g transform="translate(12, 12) scale(0.078125)">
    <path d="m 339.20866,125.98402 h 44.11006 l -96.36741,110.14194 113.36867,149.87853 h -88.76683 l -69.52535,-90.90068 -79.55277,90.90068 h -44.1367 L 221.41293,268.19503 112.65788,125.98402 h 91.02037 l 62.8448,83.08653 z m -15.4812,233.61817 h 24.4419 L 190.39724,150.99939 H 164.1685 Z" fill="#111111"></path>
  </g>

  
  <circle cx="52" cy="12" r="1.7" fill="#c9a646"></circle>
</svg>