<svg xmlns="http://www.w3.org/2000/svg" viewBox="0 0 20 14" width="20" height="14" role="img" aria-label="United States">
  <defs><clipPath id="usr"><rect width="20" height="14" rx="2.6"/></clipPath></defs>
  <g clip-path="url(#usr)">
    <rect width="20" height="14" fill="#fff"/>
    <g fill="#B22234">
      <rect width="20" height="1.077" y="0"/>
      <rect width="20" height="1.077" y="2.154"/>
      <rect width="20" height="1.077" y="4.308"/>
      <rect width="20" height="1.077" y="6.462"/>
      <rect width="20" height="1.077" y="8.616"/>
      <rect width="20" height="1.077" y="10.77"/>
      <rect width="20" height="1.077" y="12.923"/>
    </g>
    <rect width="9" height="7.54" fill="#3C3B6E"/>
    <g fill="#fff">
      <circle cx="1.7" cy="1.5" r="0.55"/><circle cx="4.5" cy="1.5" r="0.55"/><circle cx="7.3" cy="1.5" r="0.55"/>
      <circle cx="3.1" cy="3.1" r="0.55"/><circle cx="5.9" cy="3.1" r="0.55"/>
      <circle cx="1.7" cy="4.6" r="0.55"/><circle cx="4.5" cy="4.6" r="0.55"/><circle cx="7.3" cy="4.6" r="0.55"/>
      <circle cx="3.1" cy="6.1" r="0.55"/><circle cx="5.9" cy="6.1" r="0.55"/>
    </g>
  </g>
</svg>
