<svg xmlns="http://www.w3.org/2000/svg" viewBox="0 0 128 128" role="img" aria-label="Maison Dorée café assistant — chat bubble with croissant">
  
  <path d="M40 20&#xA;           H88&#xA;           a26 26 0 0 1 26 26&#xA;           v20&#xA;           a26 26 0 0 1 -26 26&#xA;           H58&#xA;           l-20 18&#xA;           a3 3 0 0 1 -5 -2.6&#xA;           l2.5 -16.4&#xA;           A26 26 0 0 1 14 66&#xA;           V46&#xA;           A26 26 0 0 1 40 20&#xA;           Z" fill="#5B3A29"></path>
  
  <g transform="translate(63 52) rotate(-34) scale(1.16) translate(-63 -52)">
    <path d="M36 47&#xA;             Q63 80 90 47&#xA;             Q63 61 36 47 Z" fill="#E8B84B"></path>
    
    <g stroke="#5B3A29" stroke-width="3" stroke-linecap="round" fill="none">
      <path d="M48 53 L48 64"></path>
      <path d="M63 56 L63 68"></path>
      <path d="M78 53 L78 64"></path>
    </g>
  </g>
</svg>